<svg width="174" height="174" viewBox="0 0 174 174" fill="none" xmlns="http://www.w3.org/2000/svg">
<rect width="174" height="174" rx="25" fill="#2563EB"/>
<path d="M62.795 117.595C55.5983 117.595 49.6483 115.923 44.945 112.58C40.2983 109.18 37.7767 104.222 37.38 97.705H57.44C57.7233 101.162 59.2533 102.89 62.03 102.89C63.05 102.89 63.9 102.663 64.58 102.21C65.3167 101.7 65.685 100.935 65.685 99.915C65.685 98.4983 64.92 97.365 63.39 96.515C61.86 95.6083 59.48 94.5883 56.25 93.455C52.3967 92.095 49.195 90.7633 46.645 89.46C44.1517 88.1567 41.9983 86.2583 40.185 83.765C38.3717 81.2717 37.4933 78.07 37.55 74.16C37.55 70.25 38.5417 66.935 40.525 64.215C42.565 61.4383 45.3133 59.3417 48.77 57.925C52.2833 56.5083 56.2217 55.8 60.585 55.8C67.9517 55.8 73.7883 57.5 78.095 60.9C82.4583 64.3 84.7533 69.0883 84.98 75.265H64.665C64.6083 73.565 64.1833 72.3467 63.39 71.61C62.5967 70.8733 61.6333 70.505 60.5 70.505C59.7067 70.505 59.055 70.7883 58.545 71.355C58.035 71.865 57.78 72.6017 57.78 73.565C57.78 74.925 58.5167 76.0583 59.99 76.965C61.52 77.815 63.9283 78.8633 67.215 80.11C71.0117 81.5267 74.1283 82.8867 76.565 84.19C79.0583 85.4933 81.2117 87.3067 83.025 89.63C84.8383 91.9533 85.745 94.8717 85.745 98.385C85.745 102.068 84.8383 105.383 83.025 108.33C81.2117 111.22 78.5767 113.487 75.12 115.13C71.6633 116.773 67.555 117.595 62.795 117.595ZM113.71 117.595C109.177 117.595 105.153 116.858 101.64 115.385C98.1833 113.912 95.435 111.872 93.395 109.265C91.355 106.658 90.1933 103.712 89.91 100.425H108.015C108.242 101.842 108.837 102.89 109.8 103.57C110.82 104.25 112.095 104.59 113.625 104.59C114.588 104.59 115.353 104.392 115.92 103.995C116.487 103.542 116.77 103.003 116.77 102.38C116.77 101.303 116.175 100.538 114.985 100.085C113.795 99.6317 111.783 99.1217 108.95 98.555C105.493 97.875 102.632 97.1383 100.365 96.345C98.155 95.5517 96.2 94.1917 94.5 92.265C92.8567 90.3383 92.035 87.675 92.035 84.275C92.035 81.3283 92.8 78.665 94.33 76.285C95.9167 73.8483 98.24 71.95 101.3 70.59C104.36 69.1733 108.072 68.465 112.435 68.465C118.895 68.465 123.938 70.0517 127.565 73.225C131.248 76.3983 133.458 80.535 134.195 85.635H117.45C117.167 84.3317 116.572 83.34 115.665 82.66C114.758 81.9233 113.54 81.555 112.01 81.555C111.047 81.555 110.31 81.7533 109.8 82.15C109.29 82.49 109.035 83.0283 109.035 83.765C109.035 84.7283 109.63 85.465 110.82 85.975C112.01 86.4283 113.908 86.91 116.515 87.42C119.972 88.1 122.89 88.865 125.27 89.715C127.65 90.565 129.718 92.0383 131.475 94.135C133.232 96.175 134.11 99.0083 134.11 102.635C134.11 105.468 133.288 108.018 131.645 110.285C130.002 112.552 127.622 114.337 124.505 115.64C121.445 116.943 117.847 117.595 113.71 117.595Z" fill="white"/>
</svg>
